<svg width="21" height="20" viewBox="0 0 21 20" fill="none" xmlns="http://www.w3.org/2000/svg">
<path d="M20.2836 10.324L11.2771 0.31673C10.8978 -0.105577 10.1693 -0.105577 9.79001 0.31673L0.783476 10.324C0.653839 10.4677 0.568745 10.646 0.538543 10.8371C0.508341 11.0283 0.534331 11.2241 0.613353 11.4008C0.773469 11.762 1.13173 11.9942 1.52702 11.9942C2.63239 11.9942 3.52847 12.8903 3.52847 13.9956V18.9993C3.52847 19.2647 3.6339 19.5192 3.82157 19.7069C4.00924 19.8946 4.26378 20 4.52919 20H7.53137C7.79678 20 8.05132 19.8946 8.23899 19.7069C8.42666 19.5192 8.53209 19.2647 8.53209 18.9993V16.9978C8.53209 15.8925 9.42817 14.9964 10.5335 14.9964C11.6389 14.9964 12.535 15.8925 12.535 16.9978V18.9993C12.535 19.2647 12.6404 19.5192 12.8281 19.7069C13.0158 19.8946 13.2703 20 13.5357 20H16.5379C16.8033 20 17.0578 19.8946 17.2455 19.7069C17.4332 19.5192 17.5386 19.2647 17.5386 18.9993V13.9956C17.5386 12.8903 18.4347 11.9942 19.5401 11.9942C19.7339 11.995 19.9237 11.9394 20.0865 11.8342C20.2493 11.729 20.3779 11.5787 20.4567 11.4017C20.5355 11.2246 20.5611 11.0284 20.5304 10.8371C20.4997 10.6457 20.4139 10.4674 20.2836 10.324Z" fill="#1A4123"/>
</svg>
