<svg width="22" height="16" viewBox="0 0 22 16" fill="none" xmlns="http://www.w3.org/2000/svg">
<path fill-rule="evenodd" clip-rule="evenodd" d="M6.13304 14.3114C6.13304 14.1125 6.21205 13.9218 6.35268 13.7812C6.49331 13.6405 6.68404 13.5615 6.88292 13.5615H20.3806C20.5795 13.5615 20.7702 13.6405 20.9109 13.7812C21.0515 13.9218 21.1305 14.1125 21.1305 14.3114C21.1305 14.5103 21.0515 14.701 20.9109 14.8417C20.7702 14.9823 20.5795 15.0613 20.3806 15.0613H6.88292C6.68404 15.0613 6.49331 14.9823 6.35268 14.8417C6.21205 14.701 6.13304 14.5103 6.13304 14.3114ZM6.13304 8.31244C6.13304 8.11356 6.21205 7.92283 6.35268 7.7822C6.49331 7.64157 6.68404 7.56256 6.88292 7.56256H20.3806C20.5795 7.56256 20.7702 7.64157 20.9109 7.7822C21.0515 7.92283 21.1305 8.11356 21.1305 8.31244C21.1305 8.51132 21.0515 8.70205 20.9109 8.84268C20.7702 8.9833 20.5795 9.06231 20.3806 9.06231H6.88292C6.68404 9.06231 6.49331 8.9833 6.35268 8.84268C6.21205 8.70205 6.13304 8.51132 6.13304 8.31244ZM6.13304 2.31346C6.13304 2.11458 6.21205 1.92385 6.35268 1.78322C6.49331 1.64259 6.68404 1.56359 6.88292 1.56359H20.3806C20.5795 1.56359 20.7702 1.64259 20.9109 1.78322C21.0515 1.92385 21.1305 2.11458 21.1305 2.31346C21.1305 2.51234 21.0515 2.70307 20.9109 2.8437C20.7702 2.98433 20.5795 3.06333 20.3806 3.06333H6.88292C6.68404 3.06333 6.49331 2.98433 6.35268 2.8437C6.21205 2.70307 6.13304 2.51234 6.13304 2.31346ZM4.41434 0.282803C4.48417 0.35246 4.53957 0.435209 4.57738 0.526311C4.61518 0.617413 4.63464 0.715079 4.63464 0.813713C4.63464 0.912347 4.61518 1.01001 4.57738 1.10111C4.53957 1.19222 4.48417 1.27497 4.41434 1.34462L2.16472 3.59424C2.09506 3.66407 2.01231 3.71948 1.92121 3.75728C1.83011 3.79508 1.73244 3.81454 1.63381 3.81454C1.53518 3.81454 1.43751 3.79508 1.34641 3.75728C1.25531 3.71948 1.17256 3.66407 1.1029 3.59424L0.353028 2.84437C0.283308 2.77465 0.228003 2.69188 0.19027 2.60078C0.152538 2.50969 0.133118 2.41206 0.133118 2.31346C0.133118 2.21486 0.152538 2.11723 0.19027 2.02613C0.228003 1.93504 0.283308 1.85227 0.353028 1.78255C0.422748 1.71283 0.505518 1.65752 0.596611 1.61979C0.687705 1.58206 0.785338 1.56264 0.883937 1.56264C0.982536 1.56264 1.08017 1.58206 1.17126 1.61979C1.26236 1.65752 1.34513 1.71283 1.41485 1.78255L1.63381 2.00301L3.35252 0.282803C3.42217 0.21297 3.50492 0.157565 3.59603 0.119762C3.68713 0.081959 3.78479 0.0625 3.88343 0.0625C3.98206 0.0625 4.07973 0.081959 4.17083 0.119762C4.26193 0.157565 4.34468 0.21297 4.41434 0.282803ZM4.41434 6.28178C4.48417 6.35144 4.53957 6.43419 4.57738 6.52529C4.61518 6.61639 4.63464 6.71406 4.63464 6.81269C4.63464 6.91133 4.61518 7.00899 4.57738 7.10009C4.53957 7.1912 4.48417 7.27394 4.41434 7.3436L2.16472 9.59322C2.09506 9.66305 2.01231 9.71846 1.92121 9.75626C1.83011 9.79406 1.73244 9.81352 1.63381 9.81352C1.53518 9.81352 1.43751 9.79406 1.34641 9.75626C1.25531 9.71846 1.17256 9.66305 1.1029 9.59322L0.353028 8.84335C0.212222 8.70254 0.133118 8.51157 0.133118 8.31244C0.133118 8.11331 0.212222 7.92233 0.353028 7.78153C0.493834 7.64072 0.684808 7.56162 0.883937 7.56162C1.08307 7.56162 1.27404 7.64072 1.41485 7.78153L1.63381 8.00199L3.35252 6.28178C3.42217 6.21195 3.50492 6.15654 3.59603 6.11874C3.68713 6.08094 3.78479 6.06148 3.88343 6.06148C3.98206 6.06148 4.07973 6.08094 4.17083 6.11874C4.26193 6.15654 4.34468 6.21195 4.41434 6.28178ZM4.41434 12.2808C4.48417 12.3504 4.53957 12.4332 4.57738 12.5243C4.61518 12.6154 4.63464 12.713 4.63464 12.8117C4.63464 12.9103 4.61518 13.008 4.57738 13.0991C4.53957 13.1902 4.48417 13.2729 4.41434 13.3426L2.16472 15.5922C2.09506 15.662 2.01231 15.7174 1.92121 15.7552C1.83011 15.793 1.73244 15.8125 1.63381 15.8125C1.53518 15.8125 1.43751 15.793 1.34641 15.7552C1.25531 15.7174 1.17256 15.662 1.1029 15.5922L0.353028 14.8423C0.212222 14.7015 0.133118 14.5105 0.133118 14.3114C0.133118 14.1123 0.212222 13.9213 0.353028 13.7805C0.493834 13.6397 0.684808 13.5606 0.883937 13.5606C1.08307 13.5606 1.27404 13.6397 1.41485 13.7805L1.63381 14.001L3.35252 12.2808C3.42217 12.2109 3.50492 12.1555 3.59603 12.1177C3.68713 12.0799 3.78479 12.0605 3.88343 12.0605C3.98206 12.0605 4.07973 12.0799 4.17083 12.1177C4.26193 12.1555 4.34468 12.2109 4.41434 12.2808Z" fill="#1A4123"/>
</svg>
