<svg width="24" height="19" viewBox="0 0 24 19" fill="none" xmlns="http://www.w3.org/2000/svg">
<path d="M5.41071 11.8011V10.142H7.0698V11.8011H5.41071ZM0.433441 3.50568C0.433441 2.62565 0.783034 1.78165 1.40531 1.15937C2.02759 0.537093 2.87159 0.1875 3.75162 0.1875H15.3653C16.2453 0.1875 17.0893 0.537093 17.7116 1.15937C18.3338 1.78165 18.6834 2.62565 18.6834 3.50568V14.2898C18.6834 14.5098 18.7708 14.7208 18.9264 14.8764C19.082 15.0319 19.293 15.1193 19.513 15.1193C19.733 15.1193 19.944 15.0319 20.0996 14.8764C20.2551 14.7208 20.3425 14.5098 20.3425 14.2898V3.50568C21.2226 3.50568 22.0666 3.85527 22.6888 4.47755C23.3111 5.09983 23.6607 5.94383 23.6607 6.82386V14.2898C23.6607 15.3898 23.2237 16.4448 22.4459 17.2227C21.668 18.0005 20.613 18.4375 19.513 18.4375H4.58117C3.48112 18.4375 2.42613 18.0005 1.64828 17.2227C0.870433 16.4448 0.433441 15.3898 0.433441 14.2898V3.50568ZM4.58117 5.16477C4.36116 5.16477 4.15016 5.25217 3.99459 5.40774C3.83902 5.56331 3.75162 5.77431 3.75162 5.99432C3.75162 6.21433 3.83902 6.42533 3.99459 6.58089C4.15016 6.73646 4.36116 6.82386 4.58117 6.82386H14.5357C14.7557 6.82386 14.9667 6.73646 15.1223 6.58089C15.2779 6.42533 15.3653 6.21433 15.3653 5.99432C15.3653 5.77431 15.2779 5.56331 15.1223 5.40774C14.9667 5.25217 14.7557 5.16477 14.5357 5.16477H4.58117ZM4.58117 8.48295C4.36116 8.48295 4.15016 8.57035 3.99459 8.72592C3.83902 8.88149 3.75162 9.09249 3.75162 9.3125V12.6307C3.75162 12.8507 3.83902 13.0617 3.99459 13.2173C4.15016 13.3728 4.36116 13.4602 4.58117 13.4602H7.89935C8.11936 13.4602 8.33036 13.3728 8.48593 13.2173C8.6415 13.0617 8.7289 12.8507 8.7289 12.6307V9.3125C8.7289 9.09249 8.6415 8.88149 8.48593 8.72592C8.33036 8.57035 8.11936 8.48295 7.89935 8.48295H4.58117ZM11.2175 8.48295C10.9975 8.48295 10.7865 8.57035 10.631 8.72592C10.4754 8.88149 10.388 9.09249 10.388 9.3125C10.388 9.53251 10.4754 9.74351 10.631 9.89908C10.7865 10.0546 10.9975 10.142 11.2175 10.142H14.5357C14.7557 10.142 14.9667 10.0546 15.1223 9.89908C15.2779 9.74351 15.3653 9.53251 15.3653 9.3125C15.3653 9.09249 15.2779 8.88149 15.1223 8.72592C14.9667 8.57035 14.7557 8.48295 14.5357 8.48295H11.2175ZM11.2175 11.8011C10.9975 11.8011 10.7865 11.8885 10.631 12.0441C10.4754 12.1997 10.388 12.4107 10.388 12.6307C10.388 12.8507 10.4754 13.0617 10.631 13.2173C10.7865 13.3728 10.9975 13.4602 11.2175 13.4602H14.5357C14.7557 13.4602 14.9667 13.3728 15.1223 13.2173C15.2779 13.0617 15.3653 12.8507 15.3653 12.6307C15.3653 12.4107 15.2779 12.1997 15.1223 12.0441C14.9667 11.8885 14.7557 11.8011 14.5357 11.8011H11.2175Z" fill="#1A4123"/>
</svg>
