<svg width="23" height="23" viewBox="0 0 23 23" fill="none" xmlns="http://www.w3.org/2000/svg">
<path d="M11.5663 1.625C6.04325 1.625 1.56625 6.102 1.56625 11.625C1.56625 17.148 6.04325 21.625 11.5663 21.625C17.0893 21.625 21.5663 17.148 21.5663 11.625C21.5663 6.102 17.0893 1.625 11.5663 1.625Z" stroke="#1A4123" stroke-width="1.5" stroke-linecap="round" stroke-linejoin="round"/>
<path d="M3.83725 17.971C3.83725 17.971 6.06625 15.125 11.5662 15.125C17.0662 15.125 19.2962 17.971 19.2962 17.971H3.83725ZM11.5662 11.625C12.3619 11.625 13.125 11.3089 13.6876 10.7463C14.2502 10.1837 14.5662 9.42065 14.5662 8.625C14.5662 7.82935 14.2502 7.06629 13.6876 6.50368C13.125 5.94107 12.3619 5.625 11.5662 5.625C10.7706 5.625 10.0075 5.94107 9.44493 6.50368C8.88232 7.06629 8.56625 7.82935 8.56625 8.625C8.56625 9.42065 8.88232 10.1837 9.44493 10.7463C10.0075 11.3089 10.7706 11.625 11.5662 11.625V11.625Z" stroke="#1A4123" stroke-width="1.5" stroke-linecap="round" stroke-linejoin="round"/>
</svg>
