<svg width="22" height="20" viewBox="0 0 22 20" fill="none" xmlns="http://www.w3.org/2000/svg">
<path d="M17.15 0.767937L13.15 4.76794C13.05 4.86794 13 4.98794 13 5.12794V13.2979C13 13.7279 13.51 13.9579 13.83 13.6679L17.83 10.0679C17.8837 10.0225 17.9268 9.9658 17.9562 9.90186C17.9856 9.83792 18.0005 9.7683 18 9.69794V1.12794C18.0006 1.02922 17.9719 0.932546 17.9177 0.85009C17.8634 0.767634 17.7859 0.70309 17.695 0.664591C17.6041 0.626093 17.5038 0.615363 17.4069 0.633754C17.3099 0.652145 17.2205 0.698834 17.15 0.767937ZM21.47 4.61794C21 4.37794 20.51 4.17794 20 4.00794V16.0379C18.86 15.6279 17.69 15.4179 16.5 15.4179C14.6 15.4179 12.72 15.9579 11 16.9979V4.89794C9.38 3.96794 7.51 3.41794 5.5 3.41794C3.71 3.41794 2.02 3.85794 0.53 4.61794C0.2 4.77794 0 5.12794 0 5.49794V17.5779C0 18.3379 0.81 18.8079 1.48 18.4479C2.69 17.8179 4.05 17.4179 5.5 17.4179C7.57 17.4179 9.48 18.2379 11 19.4179C12.52 18.2379 14.43 17.4179 16.5 17.4179C17.95 17.4179 19.31 17.8179 20.52 18.4579C21.19 18.8179 22 18.3479 22 17.5879V5.49794C22 5.12794 21.8 4.77794 21.47 4.61794Z" fill="#1A4123"/>
</svg>
