<svg width="160" height="42" viewBox="0 0 160 42" fill="none" xmlns="http://www.w3.org/2000/svg">
<path d="M24.1973 42H16.5533C16.0744 42.0001 15.6098 41.8364 15.2366 41.5362C14.8634 41.236 14.6041 40.8172 14.5016 40.3494L13.6469 36.393C12.5067 35.8934 11.4256 35.2687 10.4234 34.5303L6.56569 35.7588C6.10908 35.9044 5.61639 35.8895 5.16945 35.7164C4.7225 35.5434 4.3482 35.2226 4.10869 34.8075L0.278294 28.1904C0.0412994 27.7749 -0.0476625 27.2912 0.0259632 26.8186C0.0995889 26.3459 0.331443 25.9122 0.683594 25.5885L3.67609 22.8585C3.54001 21.6218 3.54001 20.374 3.67609 19.1373L0.683594 16.4136C0.330944 16.0897 0.0987748 15.6557 0.0251371 15.1825C-0.0485007 14.7094 0.0407618 14.2253 0.278294 13.8096L4.10029 7.1883C4.3398 6.77316 4.7141 6.45244 5.16105 6.27939C5.60799 6.10635 6.10068 6.09139 6.55729 6.237L10.415 7.4655C10.9274 7.0875 11.4608 6.7347 12.011 6.4155C12.5423 6.1173 13.0883 5.8464 13.6469 5.6049L14.5037 1.6527C14.6057 1.18482 14.8645 0.765844 15.2373 0.465252C15.6101 0.164661 16.0744 0.000503928 16.5533 0H24.1973C24.6762 0.000503928 25.1405 0.164661 25.5133 0.465252C25.886 0.765844 26.1449 1.18482 26.2469 1.6527L27.1121 5.607C28.2516 6.10659 29.3321 6.73132 30.3335 7.4697L34.1933 6.2412C34.6496 6.09612 35.1418 6.11136 35.5883 6.28438C36.0348 6.4574 36.4088 6.77781 36.6482 7.1925L40.4702 13.8138C40.9574 14.6685 40.7894 15.75 40.0649 16.4157L37.0724 19.1457C37.2085 20.3824 37.2085 21.6302 37.0724 22.8669L40.0649 25.5969C40.7894 26.2647 40.9574 27.3441 40.4702 28.1988L36.6482 34.8201C36.4087 35.2352 36.0344 35.556 35.5874 35.729C35.1405 35.9021 34.6478 35.917 34.1912 35.7714L30.3335 34.5429C29.3321 35.2807 28.2516 35.9048 27.1121 36.4035L26.2469 40.3494C26.1445 40.8169 25.8854 41.2354 25.5127 41.5356C25.14 41.8357 24.6759 41.9996 24.1973 42ZM11.1773 29.8809L12.8993 31.1409C13.2878 31.4265 13.691 31.689 14.111 31.9284C14.5058 32.1573 14.909 32.3631 15.3269 32.55L17.2862 33.4089L18.2459 37.8H22.5089L23.4686 33.4068L25.4279 32.5479C26.2826 32.1699 27.0953 31.7016 27.8492 31.1493L29.5712 29.8893L33.8594 31.2543L35.9909 27.5625L32.6666 24.5322L32.9018 22.407C33.0068 21.4767 33.0068 20.538 32.9018 19.6098L32.6666 17.4846L35.993 14.448L33.8594 10.7541L29.5733 12.1191L27.8492 10.8591C27.0949 10.3041 26.2831 9.83164 25.4279 9.45L23.4686 8.5911L22.5089 4.2H18.2459L17.2799 8.5932L15.3269 9.45C14.4705 9.82508 13.6584 10.2942 12.9056 10.8486L11.1815 12.1086L6.89749 10.7436L4.76179 14.448L8.08609 17.4741L7.85089 19.6014C7.74589 20.5317 7.74589 21.4704 7.85089 22.3986L8.08609 24.5238L4.76179 27.5541L6.89329 31.2459L11.1773 29.8809ZM20.3669 29.4C18.1391 29.4 16.0025 28.515 14.4272 26.9397C12.8519 25.3644 11.9669 23.2278 11.9669 21C11.9669 18.7722 12.8519 16.6356 14.4272 15.0603C16.0025 13.485 18.1391 12.6 20.3669 12.6C22.5947 12.6 24.7313 13.485 26.3066 15.0603C27.8819 16.6356 28.7669 18.7722 28.7669 21C28.7669 23.2278 27.8819 25.3644 26.3066 26.9397C24.7313 28.515 22.5947 29.4 20.3669 29.4ZM20.3669 16.8C19.5444 16.8008 18.7403 17.0431 18.0543 17.4968C17.3683 17.9505 16.8306 18.5956 16.5079 19.3521C16.1852 20.1086 16.0918 20.9432 16.2391 21.7523C16.3864 22.5615 16.7681 23.3096 17.3367 23.9038C17.9053 24.498 18.6359 24.9122 19.4378 25.095C20.2397 25.2777 21.0776 25.2211 21.8475 24.932C22.6175 24.6429 23.2856 24.1341 23.769 23.4687C24.2525 22.8033 24.5299 22.0106 24.5669 21.189V22.029V21C24.5669 19.8861 24.1244 18.8178 23.3367 18.0302C22.5491 17.2425 21.4808 16.8 20.3669 16.8Z" fill="#1A4123"/>
<path d="M74.9512 15.2169V36H71.5422V21.7658L65.2026 36H62.8402L56.4707 21.7658V36H53.0617V15.2169H56.7399L64.0364 31.5144L71.303 15.2169H74.9512ZM86.5789 36.2691C85.0239 36.2691 83.6184 35.9203 82.3624 35.2225C81.1065 34.5048 80.1197 33.508 79.402 32.2321C78.6843 30.9363 78.3254 29.4411 78.3254 27.7466C78.3254 26.072 78.6943 24.5868 79.4319 23.2909C80.1695 21.9951 81.1763 20.9983 82.4522 20.3006C83.728 19.6028 85.1535 19.2539 86.7284 19.2539C88.3033 19.2539 89.7287 19.6028 91.0046 20.3006C92.2805 20.9983 93.2873 21.9951 94.0249 23.2909C94.7625 24.5868 95.1313 26.072 95.1313 27.7466C95.1313 29.4212 94.7525 30.9064 93.995 32.2022C93.2374 33.4981 92.2008 34.5048 90.885 35.2225C89.5892 35.9203 88.1538 36.2691 86.5789 36.2691ZM86.5789 33.3087C87.456 33.3087 88.2734 33.0993 89.031 32.6807C89.8085 32.262 90.4364 31.6341 90.9149 30.7968C91.3934 29.9595 91.6326 28.9427 91.6326 27.7466C91.6326 26.5504 91.4033 25.5437 90.9448 24.7263C90.4863 23.889 89.8782 23.261 89.1207 22.8424C88.3631 22.4237 87.5458 22.2144 86.6686 22.2144C85.7914 22.2144 84.974 22.4237 84.2165 22.8424C83.4788 23.261 82.8907 23.889 82.4522 24.7263C82.0136 25.5437 81.7943 26.5504 81.7943 27.7466C81.7943 29.5209 82.2428 30.8964 83.1399 31.8733C84.057 32.8302 85.2033 33.3087 86.5789 33.3087ZM101.91 21.9752C102.488 21.1777 103.276 20.5298 104.273 20.0314C105.289 19.5131 106.416 19.2539 107.652 19.2539C109.107 19.2539 110.423 19.6028 111.599 20.3006C112.775 20.9983 113.702 21.9951 114.38 23.2909C115.058 24.5668 115.397 26.0321 115.397 27.6868C115.397 29.3414 115.058 30.8267 114.38 32.1424C113.702 33.4382 112.765 34.455 111.569 35.1926C110.393 35.9103 109.087 36.2691 107.652 36.2691C106.376 36.2691 105.24 36.0199 104.243 35.5215C103.266 35.0231 102.488 34.3852 101.91 33.6077V36H98.5013V13.8713H101.91V21.9752ZM111.928 27.6868C111.928 26.5504 111.689 25.5736 111.21 24.7562C110.752 23.9189 110.134 23.2909 109.356 22.8723C108.599 22.4337 107.781 22.2144 106.904 22.2144C106.047 22.2144 105.23 22.4337 104.452 22.8723C103.695 23.3109 103.077 23.9488 102.598 24.7861C102.14 25.6234 101.91 26.6102 101.91 27.7466C101.91 28.8829 102.14 29.8797 102.598 30.7369C103.077 31.5743 103.695 32.2122 104.452 32.6508C105.23 33.0894 106.047 33.3087 106.904 33.3087C107.781 33.3087 108.599 33.0894 109.356 32.6508C110.134 32.1923 110.752 31.5344 111.21 30.6771C111.689 29.8199 111.928 28.8231 111.928 27.6868ZM125.556 15.2169C127.769 15.2169 129.703 15.6455 131.358 16.5028C133.032 17.3401 134.318 18.5562 135.215 20.151C136.132 21.726 136.591 23.57 136.591 25.6832C136.591 27.7964 136.132 29.6305 135.215 31.1855C134.318 32.7405 133.032 33.9366 131.358 34.7739C129.703 35.5913 127.769 36 125.556 36H118.768V15.2169H125.556ZM125.556 33.219C127.988 33.219 129.852 32.5611 131.148 31.2453C132.444 29.9295 133.092 28.0755 133.092 25.6832C133.092 23.271 132.444 21.3871 131.148 20.0314C129.852 18.6758 127.988 17.998 125.556 17.998H122.177V33.219H125.556ZM141.704 17.3401C141.086 17.3401 140.567 17.1308 140.149 16.7121C139.73 16.2935 139.521 15.7751 139.521 15.1571C139.521 14.5391 139.73 14.0208 140.149 13.6021C140.567 13.1835 141.086 12.9742 141.704 12.9742C142.302 12.9742 142.81 13.1835 143.229 13.6021C143.647 14.0208 143.857 14.5391 143.857 15.1571C143.857 15.7751 143.647 16.2935 143.229 16.7121C142.81 17.1308 142.302 17.3401 141.704 17.3401ZM143.378 19.5231V36H139.969V19.5231H143.378ZM154.762 22.3041H151.712V36H148.273V22.3041H146.329V19.5231H148.273V18.3568C148.273 16.4629 148.771 15.0873 149.768 14.2301C150.785 13.3529 152.37 12.9143 154.523 12.9143V15.7552C153.486 15.7552 152.758 15.9546 152.34 16.3533C151.921 16.7321 151.712 17.3999 151.712 18.3568V19.5231H154.762V22.3041Z" fill="#1A4123"/>
</svg>
