<svg width="296" height="199" viewBox="0 0 296 199" fill="none" xmlns="http://www.w3.org/2000/svg">
<path d="M154.782 84.4944H141.224C140.375 84.4945 139.551 84.2043 138.889 83.6718C138.227 83.1393 137.767 82.3966 137.585 81.5668L136.069 74.5494C134.047 73.6633 132.129 72.5552 130.352 71.2456L123.509 73.4245C122.699 73.6828 121.825 73.6563 121.033 73.3493C120.24 73.0424 119.576 72.4735 119.151 71.7372L112.357 60.0006C111.937 59.2636 111.779 58.4058 111.91 57.5675C112.04 56.7291 112.452 55.9599 113.076 55.3857L118.384 50.5436C118.143 48.3501 118.143 46.1368 118.384 43.9434L113.076 39.1124C112.451 38.538 112.039 37.7681 111.908 36.9289C111.778 36.0898 111.936 35.2311 112.357 34.4938L119.136 22.7497C119.561 22.0134 120.225 21.4445 121.018 21.1376C121.811 20.8307 122.684 20.8041 123.494 21.0624L130.337 23.2414C131.245 22.5709 132.192 21.9452 133.167 21.379C134.11 20.8501 135.078 20.3696 136.069 19.9413L137.589 12.9314C137.77 12.1015 138.229 11.3584 138.89 10.8252C139.551 10.2921 140.375 10.0009 141.224 10H154.782C155.631 10.0009 156.455 10.2921 157.116 10.8252C157.777 11.3584 158.236 12.1015 158.417 12.9314L159.952 19.945C161.973 20.8311 163.889 21.9392 165.666 23.2488L172.512 21.0699C173.321 20.8125 174.194 20.8396 174.986 21.1465C175.778 21.4533 176.441 22.0216 176.866 22.7572L183.645 34.5012C184.509 36.0172 184.211 37.9354 182.926 39.1161L177.618 43.9583C177.86 46.1517 177.86 48.365 177.618 50.5585L182.926 55.4006C184.211 56.5851 184.509 58.4996 183.645 60.0155L176.866 71.7596C176.441 72.4959 175.777 73.0648 174.984 73.3717C174.192 73.6786 173.318 73.7051 172.508 73.4469L165.666 71.2679C163.889 72.5766 161.973 73.6834 159.952 74.568L158.417 81.5668C158.236 82.396 157.776 83.1382 157.115 83.6706C156.454 84.2031 155.631 84.4937 154.782 84.4944ZM131.689 62.999L134.743 65.2339C135.432 65.7404 136.147 66.206 136.892 66.6306C137.592 67.0366 138.308 67.4017 139.049 67.7332L142.524 69.2566L144.226 77.045H151.787L153.49 69.2528L156.965 67.7294C158.481 67.059 159.922 66.2284 161.259 65.2488L164.314 63.0139L171.919 65.435L175.7 58.8869L169.804 53.5122L170.221 49.7428C170.407 48.0927 170.407 46.4278 170.221 44.7814L169.804 41.012L175.704 35.6261L171.919 29.0743L164.317 31.4954L161.259 29.2605C159.921 28.276 158.482 27.4381 156.965 26.7612L153.49 25.2378L151.787 17.4494H144.226L142.513 25.2416L139.049 26.7612C137.53 27.4265 136.089 28.2585 134.754 29.2419L131.696 31.4767L124.098 29.0557L120.31 35.6261L126.206 40.9934L125.789 44.7665C125.603 46.4166 125.603 48.0815 125.789 49.7279L126.206 53.4973L120.31 58.872L124.09 65.4201L131.689 62.999ZM147.988 62.1461C144.037 62.1461 140.247 60.5764 137.453 57.7823C134.659 54.9882 133.089 51.1986 133.089 47.2472C133.089 43.2958 134.659 39.5062 137.453 36.7121C140.247 33.918 144.037 32.3483 147.988 32.3483C151.94 32.3483 155.729 33.918 158.523 36.7121C161.317 39.5062 162.887 43.2958 162.887 47.2472C162.887 51.1986 161.317 54.9882 158.523 57.7823C155.729 60.5764 151.94 62.1461 147.988 62.1461ZM147.988 39.7978C146.529 39.7992 145.103 40.229 143.886 41.0337C142.67 41.8383 141.716 42.9826 141.144 44.3243C140.571 45.6661 140.405 47.1464 140.667 48.5816C140.928 50.0168 141.605 51.3436 142.613 52.3976C143.622 53.4515 144.918 54.1862 146.34 54.5103C147.762 54.8345 149.249 54.734 150.614 54.2212C151.98 53.7084 153.165 52.806 154.022 51.6258C154.88 50.4456 155.372 49.0397 155.438 47.5824V49.0723V47.2472C155.438 45.2715 154.653 43.3767 153.256 41.9796C151.859 40.5826 149.964 39.7978 147.988 39.7978Z" fill="#FBF7F7"/>
<path d="M89.5668 119.343V162.494H79.0556V136.616L69.405 162.494H60.9224L51.2103 136.555V162.494H40.6992V119.343H53.1158L65.2252 149.217L77.2116 119.343H89.5668ZM112.739 162.986C109.378 162.986 106.346 162.269 103.641 160.835C100.978 159.4 98.8671 157.352 97.3099 154.688C95.7937 152.024 95.0356 148.91 95.0356 145.345C95.0356 141.82 95.8142 138.726 97.3714 136.063C98.9286 133.358 101.06 131.289 103.764 129.855C106.469 128.42 109.501 127.703 112.862 127.703C116.222 127.703 119.254 128.42 121.959 129.855C124.663 131.289 126.794 133.358 128.352 136.063C129.909 138.726 130.687 141.82 130.687 145.345C130.687 148.869 129.888 151.983 128.29 154.688C126.733 157.352 124.582 159.4 121.836 160.835C119.131 162.269 116.099 162.986 112.739 162.986ZM112.739 153.889C114.747 153.889 116.447 153.151 117.84 151.676C119.275 150.201 119.992 148.09 119.992 145.345C119.992 142.599 119.295 140.489 117.902 139.013C116.55 137.538 114.869 136.8 112.862 136.8C110.813 136.8 109.112 137.538 107.76 139.013C106.407 140.448 105.731 142.558 105.731 145.345C105.731 148.09 106.387 150.201 107.698 151.676C109.05 153.151 110.731 153.889 112.739 153.889ZM146.775 133.051C147.758 131.453 149.172 130.162 151.016 129.178C152.86 128.195 154.971 127.703 157.348 127.703C160.175 127.703 162.736 128.42 165.031 129.855C167.326 131.289 169.129 133.338 170.44 136.001C171.793 138.665 172.469 141.759 172.469 145.283C172.469 148.807 171.793 151.922 170.44 154.626C169.129 157.29 167.326 159.359 165.031 160.835C162.736 162.269 160.175 162.986 157.348 162.986C154.93 162.986 152.819 162.515 151.016 161.572C149.213 160.589 147.799 159.298 146.775 157.7V162.494H136.264V117.008H146.775V133.051ZM161.773 145.283C161.773 142.66 161.036 140.612 159.56 139.136C158.126 137.62 156.344 136.862 154.213 136.862C152.123 136.862 150.34 137.62 148.865 139.136C147.431 140.653 146.713 142.722 146.713 145.345C146.713 147.967 147.431 150.037 148.865 151.553C150.34 153.069 152.123 153.827 154.213 153.827C156.303 153.827 158.085 153.069 159.56 151.553C161.036 149.996 161.773 147.906 161.773 145.283ZM194.15 119.343C198.698 119.343 202.673 120.245 206.074 122.048C209.476 123.851 212.098 126.392 213.942 129.67C215.828 132.907 216.77 136.657 216.77 140.919C216.77 145.14 215.828 148.889 213.942 152.168C212.098 155.446 209.455 157.987 206.013 159.79C202.612 161.593 198.657 162.494 194.15 162.494H177.983V119.343H194.15ZM193.473 153.397C197.448 153.397 200.542 152.311 202.755 150.139C204.968 147.967 206.074 144.894 206.074 140.919C206.074 136.944 204.968 133.85 202.755 131.637C200.542 129.424 197.448 128.318 193.473 128.318H188.494V153.397H193.473ZM227.93 124.63C226.086 124.63 224.57 124.097 223.382 123.031C222.234 121.925 221.661 120.573 221.661 118.975C221.661 117.335 222.234 115.983 223.382 114.918C224.57 113.811 226.086 113.258 227.93 113.258C229.734 113.258 231.209 113.811 232.356 114.918C233.545 115.983 234.139 117.335 234.139 118.975C234.139 120.573 233.545 121.925 232.356 123.031C231.209 124.097 229.734 124.63 227.93 124.63ZM233.155 128.195V162.494H222.644V128.195H233.155ZM257.984 136.923H252.329V162.494H241.818V136.923H238.007V128.195H241.818V127.211C241.818 122.99 243.026 119.794 245.444 117.622C247.862 115.409 251.407 114.303 256.078 114.303C256.857 114.303 257.431 114.323 257.799 114.364V123.277C255.791 123.154 254.378 123.441 253.558 124.138C252.739 124.835 252.329 126.084 252.329 127.888V128.195H257.984V136.923Z" fill="white"/>
</svg>
